<mxfile host="app.diagrams.net" modified="2024-06-20T12:53:29.622Z" agent="Mozilla/5.0 (Windows NT 10.0; Win64; x64) AppleWebKit/537.36 (KHTML, like Gecko) Chrome/121.0.0.0 Safari/537.36" etag="QxV1_xso0oj_C9OUATHG" version="24.5.5" type="device">
  <diagram name="Página-1" id="kwuF60bLhhsTaaRsrp5O">
    <mxGraphModel dx="2049" dy="1117" grid="1" gridSize="10" guides="1" tooltips="1" connect="1" arrows="1" fold="1" page="1" pageScale="1" pageWidth="827" pageHeight="1169" math="0" shadow="0">
      <root>
        <mxCell id="0" />
        <mxCell id="1" parent="0" />
        <mxCell id="ur85Z_PwQGWtGNKrBQux-13" value="" style="rounded=1;whiteSpace=wrap;html=1;fillColor=#474747;gradientColor=none;strokeColor=#666666;" parent="1" vertex="1">
          <mxGeometry x="530" y="810" width="560" height="320" as="geometry" />
        </mxCell>
        <mxCell id="ur85Z_PwQGWtGNKrBQux-14" value="&lt;font face=&quot;Times New Roman&quot; style=&quot;font-size: 24px;&quot;&gt;Acabamento&lt;/font&gt;" style="rounded=1;whiteSpace=wrap;html=1;fillColor=#B0B0B0;container=0;" parent="1" vertex="1">
          <mxGeometry x="690" y="840" width="240" height="50" as="geometry" />
        </mxCell>
        <mxCell id="ur85Z_PwQGWtGNKrBQux-26" value="" style="edgeStyle=orthogonalEdgeStyle;rounded=0;orthogonalLoop=1;jettySize=auto;html=1;" parent="1" source="ur85Z_PwQGWtGNKrBQux-24" target="ur85Z_PwQGWtGNKrBQux-25" edge="1">
          <mxGeometry relative="1" as="geometry" />
        </mxCell>
        <mxCell id="ur85Z_PwQGWtGNKrBQux-24" value="Início" style="ellipse;whiteSpace=wrap;html=1;" parent="1" vertex="1">
          <mxGeometry x="1450" y="700" width="120" height="80" as="geometry" />
        </mxCell>
        <mxCell id="ur85Z_PwQGWtGNKrBQux-28" value="" style="edgeStyle=orthogonalEdgeStyle;rounded=0;orthogonalLoop=1;jettySize=auto;html=1;" parent="1" source="ur85Z_PwQGWtGNKrBQux-25" target="ur85Z_PwQGWtGNKrBQux-27" edge="1">
          <mxGeometry relative="1" as="geometry" />
        </mxCell>
        <mxCell id="ur85Z_PwQGWtGNKrBQux-25" value="Acabamento" style="rounded=0;whiteSpace=wrap;html=1;" parent="1" vertex="1">
          <mxGeometry x="1450" y="830" width="120" height="60" as="geometry" />
        </mxCell>
        <mxCell id="ur85Z_PwQGWtGNKrBQux-30" value="" style="edgeStyle=orthogonalEdgeStyle;rounded=0;orthogonalLoop=1;jettySize=auto;html=1;" parent="1" source="ur85Z_PwQGWtGNKrBQux-27" target="ur85Z_PwQGWtGNKrBQux-29" edge="1">
          <mxGeometry relative="1" as="geometry" />
        </mxCell>
        <mxCell id="ur85Z_PwQGWtGNKrBQux-27" value="João = 35pç&lt;div&gt;por hora&lt;/div&gt;" style="rounded=0;whiteSpace=wrap;html=1;" parent="1" vertex="1">
          <mxGeometry x="1640" y="830" width="120" height="60" as="geometry" />
        </mxCell>
        <mxCell id="ur85Z_PwQGWtGNKrBQux-32" value="" style="edgeStyle=orthogonalEdgeStyle;rounded=0;orthogonalLoop=1;jettySize=auto;html=1;" parent="1" source="ur85Z_PwQGWtGNKrBQux-29" target="ur85Z_PwQGWtGNKrBQux-31" edge="1">
          <mxGeometry relative="1" as="geometry" />
        </mxCell>
        <mxCell id="ur85Z_PwQGWtGNKrBQux-29" value="André = 38pç&lt;div&gt;por hora&lt;/div&gt;" style="rounded=0;whiteSpace=wrap;html=1;" parent="1" vertex="1">
          <mxGeometry x="1640" y="940" width="120" height="60" as="geometry" />
        </mxCell>
        <mxCell id="ur85Z_PwQGWtGNKrBQux-34" value="" style="edgeStyle=orthogonalEdgeStyle;rounded=0;orthogonalLoop=1;jettySize=auto;html=1;" parent="1" source="ur85Z_PwQGWtGNKrBQux-31" target="ur85Z_PwQGWtGNKrBQux-33" edge="1">
          <mxGeometry relative="1" as="geometry" />
        </mxCell>
        <mxCell id="ur85Z_PwQGWtGNKrBQux-31" value="Pedro = 40pç&lt;div&gt;por hora&lt;/div&gt;" style="rounded=0;whiteSpace=wrap;html=1;" parent="1" vertex="1">
          <mxGeometry x="1640" y="1050.71" width="120" height="60" as="geometry" />
        </mxCell>
        <mxCell id="ur85Z_PwQGWtGNKrBQux-36" value="" style="edgeStyle=orthogonalEdgeStyle;rounded=0;orthogonalLoop=1;jettySize=auto;html=1;" parent="1" source="ur85Z_PwQGWtGNKrBQux-33" target="ur85Z_PwQGWtGNKrBQux-35" edge="1">
          <mxGeometry relative="1" as="geometry" />
        </mxCell>
        <mxCell id="ur85Z_PwQGWtGNKrBQux-33" value="Miguel = 41pç&lt;div&gt;por hora&lt;/div&gt;" style="rounded=0;whiteSpace=wrap;html=1;" parent="1" vertex="1">
          <mxGeometry x="1640" y="1160" width="120" height="60" as="geometry" />
        </mxCell>
        <mxCell id="ur85Z_PwQGWtGNKrBQux-38" value="" style="edgeStyle=orthogonalEdgeStyle;rounded=0;orthogonalLoop=1;jettySize=auto;html=1;" parent="1" source="ur85Z_PwQGWtGNKrBQux-35" target="ur85Z_PwQGWtGNKrBQux-37" edge="1">
          <mxGeometry relative="1" as="geometry" />
        </mxCell>
        <mxCell id="ur85Z_PwQGWtGNKrBQux-41" value="SIM" style="edgeLabel;html=1;align=center;verticalAlign=middle;resizable=0;points=[];" parent="ur85Z_PwQGWtGNKrBQux-38" vertex="1" connectable="0">
          <mxGeometry x="-0.0847" relative="1" as="geometry">
            <mxPoint as="offset" />
          </mxGeometry>
        </mxCell>
        <mxCell id="ur85Z_PwQGWtGNKrBQux-35" value="Informações&lt;div&gt;corretas?&lt;/div&gt;" style="rhombus;whiteSpace=wrap;html=1;" parent="1" vertex="1">
          <mxGeometry x="1645" y="1270" width="110" height="101" as="geometry" />
        </mxCell>
        <mxCell id="ur85Z_PwQGWtGNKrBQux-49" value="" style="edgeStyle=orthogonalEdgeStyle;rounded=0;orthogonalLoop=1;jettySize=auto;html=1;" parent="1" source="ur85Z_PwQGWtGNKrBQux-37" target="ur85Z_PwQGWtGNKrBQux-48" edge="1">
          <mxGeometry relative="1" as="geometry" />
        </mxCell>
        <mxCell id="ur85Z_PwQGWtGNKrBQux-37" value="Fazer Calculo" style="rounded=0;whiteSpace=wrap;html=1;" parent="1" vertex="1">
          <mxGeometry x="1640" y="1430" width="120" height="60" as="geometry" />
        </mxCell>
        <mxCell id="ur85Z_PwQGWtGNKrBQux-44" value="" style="endArrow=classic;html=1;rounded=0;exitX=0;exitY=0.5;exitDx=0;exitDy=0;entryX=0.5;entryY=1;entryDx=0;entryDy=0;" parent="1" source="ur85Z_PwQGWtGNKrBQux-35" target="ur85Z_PwQGWtGNKrBQux-25" edge="1">
          <mxGeometry width="50" height="50" relative="1" as="geometry">
            <mxPoint x="1270" y="1240" as="sourcePoint" />
            <mxPoint x="1320" y="1190" as="targetPoint" />
            <Array as="points">
              <mxPoint x="1510" y="1320" />
            </Array>
          </mxGeometry>
        </mxCell>
        <mxCell id="ur85Z_PwQGWtGNKrBQux-45" value="NÂO" style="edgeLabel;html=1;align=center;verticalAlign=middle;resizable=0;points=[];" parent="ur85Z_PwQGWtGNKrBQux-44" vertex="1" connectable="0">
          <mxGeometry x="-0.7735" y="1" relative="1" as="geometry">
            <mxPoint as="offset" />
          </mxGeometry>
        </mxCell>
        <mxCell id="ur85Z_PwQGWtGNKrBQux-46" value="FIM" style="ellipse;whiteSpace=wrap;html=1;" parent="1" vertex="1">
          <mxGeometry x="1640" y="1920" width="120" height="80" as="geometry" />
        </mxCell>
        <mxCell id="ur85Z_PwQGWtGNKrBQux-53" value="" style="edgeStyle=orthogonalEdgeStyle;rounded=0;orthogonalLoop=1;jettySize=auto;html=1;" parent="1" source="ur85Z_PwQGWtGNKrBQux-48" target="ur85Z_PwQGWtGNKrBQux-52" edge="1">
          <mxGeometry relative="1" as="geometry" />
        </mxCell>
        <mxCell id="ur85Z_PwQGWtGNKrBQux-54" value="NÂO" style="edgeLabel;html=1;align=center;verticalAlign=middle;resizable=0;points=[];" parent="ur85Z_PwQGWtGNKrBQux-53" vertex="1" connectable="0">
          <mxGeometry x="-0.0566" relative="1" as="geometry">
            <mxPoint as="offset" />
          </mxGeometry>
        </mxCell>
        <mxCell id="ur85Z_PwQGWtGNKrBQux-48" value="Quantidade&lt;div&gt;Correta?&lt;/div&gt;" style="rhombus;whiteSpace=wrap;html=1;" parent="1" vertex="1">
          <mxGeometry x="1645" y="1540" width="110" height="101" as="geometry" />
        </mxCell>
        <mxCell id="ur85Z_PwQGWtGNKrBQux-50" value="" style="endArrow=classic;html=1;rounded=0;exitX=0;exitY=0.5;exitDx=0;exitDy=0;entryX=0;entryY=0.5;entryDx=0;entryDy=0;" parent="1" source="ur85Z_PwQGWtGNKrBQux-48" target="ur85Z_PwQGWtGNKrBQux-37" edge="1">
          <mxGeometry width="50" height="50" relative="1" as="geometry">
            <mxPoint x="1270" y="1340" as="sourcePoint" />
            <mxPoint x="1550" y="1440" as="targetPoint" />
            <Array as="points">
              <mxPoint x="1570" y="1590" />
              <mxPoint x="1570" y="1460" />
            </Array>
          </mxGeometry>
        </mxCell>
        <mxCell id="ur85Z_PwQGWtGNKrBQux-51" value="SIM" style="edgeLabel;html=1;align=center;verticalAlign=middle;resizable=0;points=[];" parent="ur85Z_PwQGWtGNKrBQux-50" vertex="1" connectable="0">
          <mxGeometry x="-0.7309" relative="1" as="geometry">
            <mxPoint as="offset" />
          </mxGeometry>
        </mxCell>
        <mxCell id="ur85Z_PwQGWtGNKrBQux-56" value="" style="edgeStyle=orthogonalEdgeStyle;rounded=0;orthogonalLoop=1;jettySize=auto;html=1;" parent="1" source="ur85Z_PwQGWtGNKrBQux-52" target="ur85Z_PwQGWtGNKrBQux-55" edge="1">
          <mxGeometry relative="1" as="geometry" />
        </mxCell>
        <mxCell id="ur85Z_PwQGWtGNKrBQux-52" value="Apagar" style="rounded=0;whiteSpace=wrap;html=1;" parent="1" vertex="1">
          <mxGeometry x="1640" y="1700" width="120" height="60" as="geometry" />
        </mxCell>
        <mxCell id="ur85Z_PwQGWtGNKrBQux-57" value="" style="edgeStyle=orthogonalEdgeStyle;rounded=0;orthogonalLoop=1;jettySize=auto;html=1;" parent="1" source="ur85Z_PwQGWtGNKrBQux-55" target="ur85Z_PwQGWtGNKrBQux-46" edge="1">
          <mxGeometry relative="1" as="geometry" />
        </mxCell>
        <mxCell id="ur85Z_PwQGWtGNKrBQux-55" value="Fazer Calculo" style="rounded=0;whiteSpace=wrap;html=1;" parent="1" vertex="1">
          <mxGeometry x="1640" y="1810" width="120" height="60" as="geometry" />
        </mxCell>
        <mxCell id="8HsEbWbmV8rFVuUeHwzn-1" value="" style="group" vertex="1" connectable="0" parent="1">
          <mxGeometry x="120" y="720" width="320" height="560" as="geometry" />
        </mxCell>
        <mxCell id="8HsEbWbmV8rFVuUeHwzn-2" value="" style="rounded=1;whiteSpace=wrap;html=1;fillColor=#474747;gradientColor=none;strokeColor=#666666;container=0;" vertex="1" parent="8HsEbWbmV8rFVuUeHwzn-1">
          <mxGeometry width="320" height="560" as="geometry" />
        </mxCell>
        <mxCell id="8HsEbWbmV8rFVuUeHwzn-3" value="&lt;font face=&quot;Times New Roman&quot; style=&quot;font-size: 24px;&quot;&gt;Acabamento&lt;/font&gt;" style="rounded=1;whiteSpace=wrap;html=1;fillColor=#B0B0B0;" vertex="1" parent="8HsEbWbmV8rFVuUeHwzn-1">
          <mxGeometry x="50" y="40" width="230" height="40" as="geometry" />
        </mxCell>
        <mxCell id="8HsEbWbmV8rFVuUeHwzn-4" value="&lt;font style=&quot;font-size: 14px;&quot; face=&quot;Times New Roman&quot;&gt;João&lt;/font&gt;" style="rounded=0;whiteSpace=wrap;html=1;fillColor=#B0B0B0;" vertex="1" parent="8HsEbWbmV8rFVuUeHwzn-1">
          <mxGeometry x="40" y="150" width="90" height="30" as="geometry" />
        </mxCell>
        <mxCell id="8HsEbWbmV8rFVuUeHwzn-5" value="&lt;font style=&quot;font-size: 14px;&quot; face=&quot;Times New Roman&quot;&gt;35 Por Hora&lt;/font&gt;" style="rounded=0;whiteSpace=wrap;html=1;fillColor=#B0B0B0;" vertex="1" parent="8HsEbWbmV8rFVuUeHwzn-1">
          <mxGeometry x="190" y="150" width="90" height="30" as="geometry" />
        </mxCell>
        <mxCell id="8HsEbWbmV8rFVuUeHwzn-6" value="&lt;font style=&quot;font-size: 14px;&quot; face=&quot;Times New Roman&quot;&gt;Pedro&lt;/font&gt;" style="rounded=0;whiteSpace=wrap;html=1;fillColor=#B0B0B0;" vertex="1" parent="8HsEbWbmV8rFVuUeHwzn-1">
          <mxGeometry x="40" y="210" width="90" height="30" as="geometry" />
        </mxCell>
        <mxCell id="8HsEbWbmV8rFVuUeHwzn-7" value="&lt;font style=&quot;font-size: 14px;&quot; face=&quot;Times New Roman&quot;&gt;40 Por Hora&lt;/font&gt;" style="rounded=0;whiteSpace=wrap;html=1;fillColor=#B0B0B0;" vertex="1" parent="8HsEbWbmV8rFVuUeHwzn-1">
          <mxGeometry x="190" y="210" width="90" height="30" as="geometry" />
        </mxCell>
        <mxCell id="8HsEbWbmV8rFVuUeHwzn-8" value="&lt;font color=&quot;#ffffff&quot;&gt;NOME :&lt;/font&gt;" style="text;html=1;align=center;verticalAlign=middle;resizable=0;points=[];autosize=1;strokeColor=none;fillColor=none;" vertex="1" parent="8HsEbWbmV8rFVuUeHwzn-1">
          <mxGeometry x="55" y="104" width="70" height="30" as="geometry" />
        </mxCell>
        <mxCell id="8HsEbWbmV8rFVuUeHwzn-9" value="&lt;font style=&quot;font-size: 12px;&quot; color=&quot;#ffffff&quot;&gt;QUANTIDADE :&lt;/font&gt;" style="text;html=1;align=center;verticalAlign=middle;resizable=0;points=[];autosize=1;strokeColor=none;fillColor=none;" vertex="1" parent="8HsEbWbmV8rFVuUeHwzn-1">
          <mxGeometry x="166.00000000000045" y="104" width="110" height="30" as="geometry" />
        </mxCell>
        <mxCell id="8HsEbWbmV8rFVuUeHwzn-10" value="&lt;font style=&quot;font-size: 14px;&quot; face=&quot;Times New Roman&quot;&gt;André&lt;/font&gt;" style="rounded=0;whiteSpace=wrap;html=1;fillColor=#B0B0B0;" vertex="1" parent="8HsEbWbmV8rFVuUeHwzn-1">
          <mxGeometry x="40" y="265" width="90" height="30" as="geometry" />
        </mxCell>
        <mxCell id="8HsEbWbmV8rFVuUeHwzn-11" value="&lt;font style=&quot;font-size: 14px;&quot; face=&quot;Times New Roman&quot;&gt;38 Por Hora&lt;/font&gt;" style="rounded=0;whiteSpace=wrap;html=1;fillColor=#B0B0B0;" vertex="1" parent="8HsEbWbmV8rFVuUeHwzn-1">
          <mxGeometry x="190" y="265" width="90" height="30" as="geometry" />
        </mxCell>
        <mxCell id="8HsEbWbmV8rFVuUeHwzn-12" value="&lt;font style=&quot;font-size: 14px;&quot; face=&quot;Times New Roman&quot;&gt;Miguel&lt;/font&gt;" style="rounded=0;whiteSpace=wrap;html=1;fillColor=#B0B0B0;" vertex="1" parent="8HsEbWbmV8rFVuUeHwzn-1">
          <mxGeometry x="40" y="320" width="90" height="30" as="geometry" />
        </mxCell>
        <mxCell id="8HsEbWbmV8rFVuUeHwzn-13" value="&lt;font style=&quot;font-size: 14px;&quot; face=&quot;Times New Roman&quot;&gt;40 Por Hora&lt;/font&gt;" style="rounded=0;whiteSpace=wrap;html=1;fillColor=#B0B0B0;" vertex="1" parent="8HsEbWbmV8rFVuUeHwzn-1">
          <mxGeometry x="190" y="320" width="90" height="30" as="geometry" />
        </mxCell>
        <mxCell id="8HsEbWbmV8rFVuUeHwzn-14" value="&lt;font face=&quot;Times New Roman&quot; color=&quot;#ffffff&quot;&gt;&lt;span style=&quot;font-size: 14px;&quot;&gt;VOLTAR&lt;/span&gt;&lt;/font&gt;" style="rounded=1;whiteSpace=wrap;html=1;fillColor=#5280FF;container=0;" vertex="1" parent="8HsEbWbmV8rFVuUeHwzn-1">
          <mxGeometry x="52" y="422" width="110" height="37" as="geometry" />
        </mxCell>
        <mxCell id="8HsEbWbmV8rFVuUeHwzn-15" value="&lt;font style=&quot;font-size: 24px;&quot;&gt;=&lt;/font&gt;" style="rounded=0;whiteSpace=wrap;html=1;fillColor=#0CCC46;" vertex="1" parent="8HsEbWbmV8rFVuUeHwzn-1">
          <mxGeometry x="197.99000000000024" y="418" width="46.03" height="41" as="geometry" />
        </mxCell>
        <mxCell id="8HsEbWbmV8rFVuUeHwzn-16" value="&lt;font style=&quot;font-size: 14px;&quot; face=&quot;Times New Roman&quot;&gt;João 35 Pç&lt;/font&gt;" style="rounded=0;whiteSpace=wrap;html=1;fillColor=#B0B0B0;" vertex="1" parent="1">
          <mxGeometry x="617" y="920" width="90" height="30" as="geometry" />
        </mxCell>
        <mxCell id="8HsEbWbmV8rFVuUeHwzn-17" value="&lt;font style=&quot;font-size: 14px;&quot; face=&quot;Times New Roman&quot;&gt;André 38 Pç&lt;/font&gt;" style="rounded=0;whiteSpace=wrap;html=1;fillColor=#B0B0B0;" vertex="1" parent="1">
          <mxGeometry x="875" y="920" width="90" height="30" as="geometry" />
        </mxCell>
        <mxCell id="8HsEbWbmV8rFVuUeHwzn-18" value="&lt;font style=&quot;font-size: 14px;&quot; face=&quot;Times New Roman&quot;&gt;Pedro 40 Pç&lt;/font&gt;" style="rounded=0;whiteSpace=wrap;html=1;fillColor=#B0B0B0;" vertex="1" parent="1">
          <mxGeometry x="620" y="970" width="90" height="30" as="geometry" />
        </mxCell>
        <mxCell id="8HsEbWbmV8rFVuUeHwzn-19" value="&lt;font style=&quot;font-size: 14px;&quot; face=&quot;Times New Roman&quot;&gt;Miguel 40 Pç&lt;/font&gt;" style="rounded=0;whiteSpace=wrap;html=1;fillColor=#B0B0B0;" vertex="1" parent="1">
          <mxGeometry x="875" y="970" width="90" height="30" as="geometry" />
        </mxCell>
        <mxCell id="8HsEbWbmV8rFVuUeHwzn-20" value="&lt;font face=&quot;Times New Roman&quot; color=&quot;#ffffff&quot;&gt;&lt;span style=&quot;font-size: 14px;&quot;&gt;VOLTAR&lt;/span&gt;&lt;/font&gt;" style="rounded=1;whiteSpace=wrap;html=1;fillColor=#5280FF;container=0;" vertex="1" parent="1">
          <mxGeometry x="680" y="1048.71" width="110" height="37" as="geometry" />
        </mxCell>
        <mxCell id="8HsEbWbmV8rFVuUeHwzn-21" value="&lt;font style=&quot;font-size: 24px;&quot;&gt;=&lt;/font&gt;" style="rounded=0;whiteSpace=wrap;html=1;fillColor=#0CCC46;" vertex="1" parent="1">
          <mxGeometry x="860.0000000000002" y="1046.71" width="46.03" height="41" as="geometry" />
        </mxCell>
      </root>
    </mxGraphModel>
  </diagram>
</mxfile>
